<svg xmlns="http://www.w3.org/2000/svg" width="64" height="64" viewBox="0 0 64 64"><g transform="translate(-902 -2584)"><rect width="64" height="64" transform="translate(902 2584)" fill="none"/><g transform="translate(901.999 2593.251)"><path d="M181.945,466.335l-6.738,6.006,6.773.878Z" transform="translate(-134.111 -464.732)" fill="none" stroke="#0094e4" stroke-linecap="round" stroke-linejoin="round" stroke-width="2"/><path d="M173.123,468.868a20.55,20.55,0,0,0-13.895-4.759,20.318,20.318,0,0,0-16.089,8.833" transform="translate(-128.581 -464.346)" fill="none" stroke="#0094e4" stroke-linecap="round" stroke-linejoin="round" stroke-miterlimit="10" stroke-width="2"/><path d="M143.173,515.928l6.74-6.007-6.775-.879Z" transform="translate(-128.58 -472.097)" fill="none" stroke="#0094e4" stroke-linecap="round" stroke-linejoin="round" stroke-width="2"/><path d="M147.148,512.978a20.548,20.548,0,0,0,13.905,4.768,20.316,20.316,0,0,0,16.088-8.833" transform="translate(-129.272 -472.074)" fill="none" stroke="#0094e4" stroke-linecap="round" stroke-linejoin="round" stroke-miterlimit="10" stroke-width="2"/><g transform="translate(0.262 12.946)" fill="none" stroke="#0094e4" stroke-width="2"><circle cx="4.965" cy="4.965" r="4.965" stroke="none"/><circle cx="4.965" cy="4.965" r="3.965" fill="none"/></g><g transform="translate(11.02 15.428)" fill="none" stroke="#0094e4" stroke-width="2"><circle cx="4.965" cy="4.965" r="4.965" stroke="none"/><circle cx="4.965" cy="4.965" r="3.965" fill="none"/></g><g transform="translate(2.745 23.704)" fill="none" stroke="#0094e4" stroke-width="2"><circle cx="4.965" cy="4.965" r="4.965" stroke="none"/><circle cx="4.965" cy="4.965" r="3.965" fill="none"/></g><path d="M276.191,401.178v1.29a.644.644,0,0,0,.329.561l8.91,5.068a.634.634,0,0,0,.32.084.647.647,0,0,0,.326-.087l10.069-5.9a.647.647,0,0,0,.32-.557v-9.59a.645.645,0,0,0-.318-.556l-8.845-5.217a.643.643,0,0,0-.652,0l-8.246,4.8m12.252-2.715-10.55,5.959a.613.613,0,0,0-.367.592v2.927l3.495,1.938v-2.943a.531.531,0,0,1,.283-.527l10.57-6" transform="translate(-233.591 -374.891)" fill="none" stroke="#0094e4" stroke-linecap="round" stroke-linejoin="round" stroke-width="2"/></g></g></svg>