<svg xmlns="http://www.w3.org/2000/svg" width="64" height="64" viewBox="0 0 64 64"><g transform="translate(-1808 -2064)"><rect width="64" height="64" transform="translate(1808 2064)" fill="none"/><g transform="translate(1569.127 2041.582)"><path d="M269.943,39.111l12.12.014h0a.474.474,0,0,0,.335-.81l-3.143-3.144a13.1,13.1,0,0,1,12.732-3.357.475.475,0,0,0,.485-.764c-3-3.564-6.738-5.527-10.542-5.527a12.618,12.618,0,0,0-8.66,3.662l-3.024-3.022a.474.474,0,0,0-.809.337l.03,12.138A.476.476,0,0,0,269.943,39.111Z" transform="translate(-1.395 0)" fill="none" stroke="#0094e7" stroke-linecap="round" stroke-linejoin="round" stroke-width="2"/><path d="M245.034,39.139h5.333l6.892,32.786h36.564l2.888-26.785H251.649" transform="translate(0 -0.778)" fill="none" stroke="#0094e7" stroke-linecap="round" stroke-linejoin="round" stroke-width="2"/><line x2="28.168" transform="translate(260.82 53.445)" fill="none" stroke="#0094e7" stroke-linecap="round" stroke-linejoin="round" stroke-width="2"/><line x2="25.729" transform="translate(263.376 61.678)" fill="none" stroke="#0094e7" stroke-linecap="round" stroke-linejoin="round" stroke-width="2"/><path d="M258.013,73.913v6.205h36.061" transform="translate(-0.742 -2.766)" fill="none" stroke="#0094e7" stroke-linecap="round" stroke-linejoin="round" stroke-width="2"/><circle cx="2.979" cy="2.979" r="2.979" transform="translate(254.292 77.352)" fill="none" stroke="#0094e7" stroke-linecap="round" stroke-linejoin="round" stroke-width="2"/><path d="M299.059,83.473a2.979,2.979,0,1,1-2.979-2.979A2.979,2.979,0,0,1,299.059,83.473Z" transform="translate(-2.747 -3.142)" fill="none" stroke="#0094e7" stroke-linecap="round" stroke-linejoin="round" stroke-width="2"/></g></g></svg>