<svg xmlns="http://www.w3.org/2000/svg" width="64" height="64" viewBox="0 0 64 64"><g transform="translate(-1209 -2061.895)"><rect width="64" height="64" transform="translate(1209 2061.895)" fill="none"/><g transform="translate(1210.879 2065.759)"><path d="M499.2,175.193c-1.65,3.414-4.286,8.862-5.835,12.019-1.13,2.3-2.9,3.6-5.22,3.6h-15.91c-3.086,0-4.891-1.505-4.891-4.292,0-3.083,2-4.252,4.492-4.34l0,0L484.011,181l4.725-14.156h0a10.747,10.747,0,0,1,10.46-6.917c6.682,0,12.608,5.054,13.235,11.292l2.147,18.09H497.853" transform="translate(-454.658 -134.899)" fill="none" stroke="#0094e7" stroke-linejoin="round" stroke-width="2"/><path d="M492.949,155.584a11.146,11.146,0,1,1,11.145-11.148A11.144,11.144,0,0,1,492.949,155.584Z" transform="translate(-455.531 -133.291)" fill="none" stroke="#0094e7" stroke-linejoin="round" stroke-width="2"/><path d="M15.1,25.37H10.272l-.019-.327-.121-2.063a10.689,10.689,0,0,1-2.936-1.2l-1.53,1.36-.245.218-.232-.232L2.241,20.18l-.232-.231.218-.245,1.32-1.484A10.7,10.7,0,0,1,2.258,15.23L.327,15.117,0,15.1V10.272l.327-.019,1.845-.109A10.687,10.687,0,0,1,3.42,7.009L2.227,5.666l-.218-.245.232-.232L5.19,2.241l.232-.232.245.218,1.3,1.154a10.683,10.683,0,0,1,3.188-1.343l.1-1.71L10.272,0H15.1l.019.327.1,1.71A10.678,10.678,0,0,1,18.406,3.38l1.3-1.154.245-.218.232.232L23.13,5.19l.232.232-.218.245L21.95,7.009A10.689,10.689,0,0,1,23.2,10.144l1.845.109.327.019V15.1l-.327.019-1.931.114a10.694,10.694,0,0,1-1.288,2.989L23.144,19.7l.218.245-.232.231L20.18,23.129l-.232.232-.245-.218-1.53-1.36a10.686,10.686,0,0,1-2.935,1.2l-.121,2.063-.019.327ZM12.685,5.56a6.951,6.951,0,1,0,6.951,6.951A6.959,6.959,0,0,0,12.685,5.56Z" transform="translate(0 16.982)" fill="none" stroke="#0094e7" stroke-linejoin="round" stroke-width="2"/></g></g></svg>